<?xml version="1.0" encoding="utf-8"?>
<!-- Generator: Adobe Illustrator 24.2.0, SVG Export Plug-In . SVG Version: 6.00 Build 0)  -->
<svg version="1.1" id="Layer_1" xmlns="http://www.w3.org/2000/svg" xmlns:xlink="http://www.w3.org/1999/xlink" x="0px" y="0px"
	 viewBox="0 0 600 600" style="enable-background:new 0 0 600 600;" xml:space="preserve">
<style type="text/css">
	.st0{fill:none;stroke:url(#Stroke-58_1_);stroke-width:0.5191;}
	.st1{fill:none;stroke:url(#Stroke-59_1_);stroke-width:0.5191;}
	.st2{fill:none;stroke:url(#Stroke-60_1_);stroke-width:0.5191;}
	.st3{fill:none;stroke:url(#Stroke-61_1_);stroke-width:0.5191;}
	.st4{fill:none;stroke:url(#Stroke-62_1_);stroke-width:0.5191;}
	.st5{fill:none;stroke:url(#Stroke-63_1_);stroke-width:0.5191;}
	.st6{fill:none;stroke:url(#Stroke-64_1_);stroke-width:0.5191;}
	.st7{fill:none;stroke:url(#Stroke-65_1_);stroke-width:0.5191;}
	.st8{fill:none;stroke:url(#Stroke-66_1_);stroke-width:0.5191;}
	.st9{fill:none;stroke:url(#Stroke-67_1_);stroke-width:0.5191;}
	.st10{fill:none;stroke:url(#Stroke-68_1_);stroke-width:0.5191;}
	.st11{fill:none;stroke:url(#Stroke-69_1_);stroke-width:0.5191;}
	.st12{fill:none;stroke:url(#Stroke-70_1_);stroke-width:0.5191;}
	.st13{fill:none;stroke:url(#Stroke-71_1_);stroke-width:0.5191;}
	.st14{fill:none;stroke:url(#Stroke-72_1_);stroke-width:0.5191;}
	.st15{fill:none;stroke:url(#Stroke-73_1_);stroke-width:0.5191;}
	.st16{fill:none;stroke:url(#Stroke-74_1_);stroke-width:0.5191;}
	.st17{fill:none;stroke:url(#Stroke-75_1_);stroke-width:0.5191;}
	.st18{fill:none;stroke:url(#Stroke-76_1_);stroke-width:0.5191;}
	.st19{fill:none;stroke:url(#Stroke-77_1_);stroke-width:0.5191;}
	.st20{fill:none;stroke:url(#Stroke-78_1_);stroke-width:0.5191;}
	.st21{fill:none;stroke:url(#Stroke-79_1_);stroke-width:0.5191;}
	.st22{fill:none;stroke:url(#Stroke-80_1_);stroke-width:0.5191;}
	.st23{fill:none;stroke:url(#Stroke-81_1_);stroke-width:0.5191;}
	.st24{fill:none;stroke:url(#Stroke-82_1_);stroke-width:0.5191;}
	.st25{fill:none;stroke:url(#Stroke-83_1_);stroke-width:0.5191;}
	.st26{fill:none;stroke:url(#Stroke-84_1_);stroke-width:0.5191;}
	.st27{fill:none;stroke:url(#Stroke-85_1_);stroke-width:0.5191;}
	.st28{fill:none;stroke:url(#Stroke-86_1_);stroke-width:0.5191;}
	.st29{fill:none;stroke:url(#Stroke-87_1_);stroke-width:0.5191;}
	.st30{fill:none;stroke:url(#Stroke-88_1_);stroke-width:0.5191;}
	.st31{fill:none;stroke:url(#Stroke-89_1_);stroke-width:0.5191;}
	.st32{fill:none;stroke:url(#Stroke-90_1_);stroke-width:0.5191;}
	.st33{fill:none;stroke:url(#Stroke-91_1_);stroke-width:0.5191;}
	.st34{fill:none;stroke:url(#Stroke-92_1_);stroke-width:0.5191;}
	.st35{fill:none;stroke:url(#Stroke-93_1_);stroke-width:0.5191;}
	.st36{fill:none;stroke:url(#Stroke-94_1_);stroke-width:0.5191;}
	.st37{fill:none;stroke:url(#Stroke-95_1_);stroke-width:0.5191;}
	.st38{fill:none;stroke:url(#Stroke-96_1_);stroke-width:0.5191;}
	.st39{fill:none;stroke:url(#Stroke-97_1_);stroke-width:0.5191;}
	.st40{fill:none;stroke:url(#Stroke-98_1_);stroke-width:0.5191;}
	.st41{fill:none;stroke:url(#Stroke-100_1_);stroke-width:0.5191;}
	.st42{fill:none;stroke:url(#Stroke-101_1_);stroke-width:0.5191;}
	.st43{fill:none;stroke:url(#Stroke-102_1_);stroke-width:0.5191;}
	.st44{fill:#FFFFFF;}
	.st45{fill:#00B093;}
	.st46{fill:#06886F;}
	.st47{fill:#A9DBD3;}
</style>
<g id="Pattern">
	<g id="Unified-Headers_2_">
		<g id="Assets_2_" transform="translate(-1823.000000, -2406.000000)">
			<g id="brand_x2F_laser-lines_x2F_jade_1_" transform="translate(1823.000000, 2130.000000)">
				
					<g id="Group-104_2_" transform="translate(484.000000, 484.500000) scale(-1, 1) rotate(-40.000000) translate(-484.000000, -484.500000) translate(142.000000, 139.500000)">
					
						<linearGradient id="Stroke-58_1_" gradientUnits="userSpaceOnUse" x1="571.6183" y1="394.6011" x2="571.8846" y2="395.2819" gradientTransform="matrix(31.7778 -288.0562 180.2198 50.7919 -88761.6953 145189.4531)">
						<stop  offset="0" style="stop-color:#006D62"/>
						<stop  offset="0.5168" style="stop-color:#001713"/>
						<stop  offset="1" style="stop-color:#00AF85"/>
					</linearGradient>
					<polygon id="Stroke-58_2_" class="st0" points="514.7,634.9 501,613.4 498.8,610 492.7,600.2 482.3,583.9 501.7,616.8 
						597.2,767.5 					"/>
					
						<linearGradient id="Stroke-59_1_" gradientUnits="userSpaceOnUse" x1="571.6784" y1="395.1317" x2="571.9377" y2="395.8122" gradientTransform="matrix(42.8912 -393.9231 243.2475 69.4591 -120147.75 198250.2188)">
						<stop  offset="0" style="stop-color:#006D62"/>
						<stop  offset="0.5168" style="stop-color:#001713"/>
						<stop  offset="1" style="stop-color:#00AF85"/>
					</linearGradient>
					<polygon id="Stroke-59_2_" class="st1" points="594.5,762.3 439.5,511.2 458.9,544 481.8,581 485.3,586.9 495.1,602.6 
						511.6,629.4 					"/>
					
						<linearGradient id="Stroke-60_1_" gradientUnits="userSpaceOnUse" x1="571.2119" y1="395.1917" x2="571.4804" y2="395.8723" gradientTransform="matrix(31.9513 -288.5487 181.2046 50.8788 -89497.2812 145039.5469)">
						<stop  offset="0" style="stop-color:#006D62"/>
						<stop  offset="0.5168" style="stop-color:#001713"/>
						<stop  offset="1" style="stop-color:#00AF85"/>
					</linearGradient>
					<polygon id="Stroke-60_2_" class="st2" points="327.7,334.6 410.5,466.9 424.3,488.7 426.5,492.1 432.7,501.9 443.3,518.5 
						423.7,485.6 					"/>
					
						<linearGradient id="Stroke-61_1_" gradientUnits="userSpaceOnUse" x1="571.4753" y1="395.4306" x2="571.7337" y2="396.111" gradientTransform="matrix(42.8044 -393.9231 242.7551 69.4591 -120075.0781 197978.6875)">
						<stop  offset="0" style="stop-color:#006D62"/>
						<stop  offset="0.5168" style="stop-color:#001713"/>
						<stop  offset="1" style="stop-color:#00AF85"/>
					</linearGradient>
					<polygon id="Stroke-61_2_" class="st3" points="331.5,340.8 486.3,591.9 466.8,559.1 443.7,521.5 440.1,515.6 430.4,499.9 
						414.4,473.8 					"/>
					
						<linearGradient id="Stroke-62_1_" gradientUnits="userSpaceOnUse" x1="571.5414" y1="394.5145" x2="571.8082" y2="395.1955" gradientTransform="matrix(29.3466 -265.8981 166.4325 46.8849 -81929.1719 134033)">
						<stop  offset="0" style="stop-color:#006D62"/>
						<stop  offset="0.5168" style="stop-color:#001713"/>
						<stop  offset="1" style="stop-color:#00AF85"/>
					</linearGradient>
					<polygon id="Stroke-62_2_" class="st4" points="500.9,614.4 488.2,594.5 486.2,591.4 480.4,582.3 470.8,567.3 488.1,597.4 
						576.9,736.8 					"/>
					
						<linearGradient id="Stroke-63_1_" gradientUnits="userSpaceOnUse" x1="571.616" y1="395.044" x2="571.869" y2="395.7246" gradientTransform="matrix(39.0709 -363.3941 221.5817 64.076 -109392.3906 182898.4688)">
						<stop  offset="0" style="stop-color:#006D62"/>
						<stop  offset="0.5168" style="stop-color:#001713"/>
						<stop  offset="1" style="stop-color:#00AF85"/>
					</linearGradient>
					<polygon id="Stroke-63_2_" class="st5" points="574.3,732.1 433.1,500.5 450.2,530.6 471,564.7 474.4,570.2 483.2,584.6 
						498.3,609.3 					"/>
					
						<linearGradient id="Stroke-64_1_" gradientUnits="userSpaceOnUse" x1="571.1361" y1="395.1001" x2="571.4036" y2="395.781" gradientTransform="matrix(29.4335 -266.3905 166.925 46.9717 -82399.8984 133914.5938)">
						<stop  offset="0" style="stop-color:#006D62"/>
						<stop  offset="0.5168" style="stop-color:#001713"/>
						<stop  offset="1" style="stop-color:#00AF85"/>
					</linearGradient>
					<polygon id="Stroke-64_2_" class="st6" points="329,337.7 405,459.9 417.8,480 419.8,483.1 425.6,492.2 435.4,507.4 
						418.1,477.3 					"/>
					
						<linearGradient id="Stroke-65_1_" gradientUnits="userSpaceOnUse" x1="571.4149" y1="395.3518" x2="571.6686" y2="396.0324" gradientTransform="matrix(39.0709 -362.9017 221.5817 63.9892 -109552.2656 182400.5312)">
						<stop  offset="0" style="stop-color:#006D62"/>
						<stop  offset="0.5168" style="stop-color:#001713"/>
						<stop  offset="1" style="stop-color:#00AF85"/>
					</linearGradient>
					<polygon id="Stroke-65_2_" class="st7" points="332.8,343.2 474,574.4 456.8,544.3 435.7,509.7 432.4,504.3 423.5,489.8 
						408.9,465.8 					"/>
					
						<linearGradient id="Stroke-66_1_" gradientUnits="userSpaceOnUse" x1="571.4573" y1="394.4157" x2="571.7231" y2="395.0973" gradientTransform="matrix(27.0024 -245.2172 153.1375 43.2383 -75341.4219 123621.1719)">
						<stop  offset="0" style="stop-color:#006D62"/>
						<stop  offset="0.5168" style="stop-color:#001713"/>
						<stop  offset="1" style="stop-color:#00AF85"/>
					</linearGradient>
					<polygon id="Stroke-66_2_" class="st8" points="487.3,595.8 475.5,577.5 473.6,574.5 468.2,566.1 459.3,552.2 474,579.9 
						556.8,708.6 					"/>
					
						<linearGradient id="Stroke-67_1_" gradientUnits="userSpaceOnUse" x1="571.5469" y1="394.9423" x2="571.7921" y2="395.6233" gradientTransform="matrix(35.4244 -334.8347 200.9007 59.0401 -99126.4141 168538.2188)">
						<stop  offset="0" style="stop-color:#006D62"/>
						<stop  offset="0.5168" style="stop-color:#001713"/>
						<stop  offset="1" style="stop-color:#00AF85"/>
					</linearGradient>
					<polygon id="Stroke-67_2_" class="st9" points="554.7,704.4 426.7,491 441.4,518.7 460.3,550.1 463.3,555.1 471.2,568.4 
						484.9,591.1 					"/>
					
						<linearGradient id="Stroke-68_1_" gradientUnits="userSpaceOnUse" x1="571.0538" y1="394.9974" x2="571.3193" y2="395.679" gradientTransform="matrix(27.0893 -246.2019 153.63 43.412 -75791.2578 123778.0625)">
						<stop  offset="0" style="stop-color:#006D62"/>
						<stop  offset="0.5168" style="stop-color:#001713"/>
						<stop  offset="1" style="stop-color:#00AF85"/>
					</linearGradient>
					<polygon id="Stroke-68_2_" class="st10" points="330.5,340.3 400.1,453.2 412,471.8 413.9,474.6 419.4,483 428.5,497.2 
						413.8,469.6 					"/>
					
						<linearGradient id="Stroke-69_1_" gradientUnits="userSpaceOnUse" x1="571.3473" y1="395.2607" x2="571.5938" y2="395.9416" gradientTransform="matrix(35.4244 -333.8499 200.9007 58.8665 -99275.8984 167812.0156)">
						<stop  offset="0" style="stop-color:#006D62"/>
						<stop  offset="0.5168" style="stop-color:#001713"/>
						<stop  offset="1" style="stop-color:#00AF85"/>
					</linearGradient>
					<polygon id="Stroke-69_2_" class="st11" points="332.9,345.7 460.9,558.5 446.2,530.9 427.1,499.1 424,494.1 416,480.7 
						402.8,458.6 					"/>
					
						<linearGradient id="Stroke-70_1_" gradientUnits="userSpaceOnUse" x1="571.3652" y1="394.312" x2="571.6291" y2="394.9946" gradientTransform="matrix(24.8318 -226.5058 140.8275 39.939 -69243.4375 114199.2031)">
						<stop  offset="0" style="stop-color:#006D62"/>
						<stop  offset="0.5168" style="stop-color:#001713"/>
						<stop  offset="1" style="stop-color:#00AF85"/>
					</linearGradient>
					<polygon id="Stroke-70_2_" class="st12" points="474,577.9 462.7,561 461,558.2 456,550.4 447.6,537.6 459.4,562.9 537.3,682 
											"/>
					
						<linearGradient id="Stroke-71_1_" gradientUnits="userSpaceOnUse" x1="571.4628" y1="394.8049" x2="571.6948" y2="395.4865" gradientTransform="matrix(31.6041 -307.26 179.235 54.1781 -88369.7734 154673.125)">
						<stop  offset="0" style="stop-color:#006D62"/>
						<stop  offset="0.5168" style="stop-color:#001713"/>
						<stop  offset="1" style="stop-color:#00AF85"/>
					</linearGradient>
					<polygon id="Stroke-71_2_" class="st13" points="535.4,677.8 421.2,482 433,507.1 449.8,535.9 452.4,540.6 459.6,552.9 
						471.8,573.7 					"/>
					
						<linearGradient id="Stroke-72_1_" gradientUnits="userSpaceOnUse" x1="570.9641" y1="394.8918" x2="571.2285" y2="395.5742" gradientTransform="matrix(24.9186 -226.9982 141.3199 40.0258 -69674.0234 114136.1016)">
						<stop  offset="0" style="stop-color:#006D62"/>
						<stop  offset="0.5168" style="stop-color:#001713"/>
						<stop  offset="1" style="stop-color:#00AF85"/>
					</linearGradient>
					<polygon id="Stroke-72_2_" class="st14" points="330.9,342.8 394.2,446.7 405.5,463.9 407.3,466.6 412.4,474.3 420.9,487.5 
						409.1,462.2 					"/>
					
						<linearGradient id="Stroke-73_1_" gradientUnits="userSpaceOnUse" x1="571.2667" y1="395.1398" x2="571.4987" y2="395.8214" gradientTransform="matrix(31.6041 -307.26 179.235 54.1781 -88510.1328 154458.4844)">
						<stop  offset="0" style="stop-color:#006D62"/>
						<stop  offset="0.5168" style="stop-color:#001713"/>
						<stop  offset="1" style="stop-color:#00AF85"/>
					</linearGradient>
					<polygon id="Stroke-73_2_" class="st15" points="333.1,347.3 447.3,543.1 435.5,518 418.4,488.6 415.7,484.1 408.6,471.8 
						396.7,451.5 					"/>
					
						<linearGradient id="Stroke-74_1_" gradientUnits="userSpaceOnUse" x1="571.2658" y1="394.2093" x2="571.5304" y2="394.8937" gradientTransform="matrix(22.8348 -208.2869 129.5021 36.7265 -63637.0352 105026.7188)">
						<stop  offset="0" style="stop-color:#006D62"/>
						<stop  offset="0.5168" style="stop-color:#001713"/>
						<stop  offset="1" style="stop-color:#00AF85"/>
					</linearGradient>
					<polygon id="Stroke-74_2_" class="st16" points="459.5,561.6 448.7,545.9 447.1,543.4 442.3,536.2 434.3,524.4 442.5,547.1 
						516.8,657.1 					"/>
					
						<linearGradient id="Stroke-75_1_" gradientUnits="userSpaceOnUse" x1="571.3599" y1="394.6084" x2="571.5688" y2="395.2912" gradientTransform="matrix(27.5234 -282.1475 156.092 49.7501 -76878.1953 142046.3438)">
						<stop  offset="0" style="stop-color:#006D62"/>
						<stop  offset="0.5168" style="stop-color:#001713"/>
						<stop  offset="1" style="stop-color:#00AF85"/>
					</linearGradient>
					<polygon id="Stroke-75_2_" class="st17" points="515.7,653.8 416.3,474 424.5,496.7 439.1,523.2 441.5,527.4 447.7,538.7 
						458.2,557.8 					"/>
					
						<linearGradient id="Stroke-76_1_" gradientUnits="userSpaceOnUse" x1="570.8653" y1="394.7704" x2="571.1273" y2="395.4546" gradientTransform="matrix(22.8349 -209.2717 129.5022 36.9001 -63801.5664 105235.5625)">
						<stop  offset="0" style="stop-color:#006D62"/>
						<stop  offset="0.5168" style="stop-color:#001713"/>
						<stop  offset="1" style="stop-color:#00AF85"/>
					</linearGradient>
					<polygon id="Stroke-76_2_" class="st18" points="331.1,344.9 388.3,440.6 399,456.5 400.7,459 405.5,466.1 413.6,478.3 
						405.4,455.5 					"/>
					
						<linearGradient id="Stroke-77_1_" gradientUnits="userSpaceOnUse" x1="571.1666" y1="394.9682" x2="571.375" y2="395.651" gradientTransform="matrix(27.4366 -281.6551 155.5996 49.6633 -76766.5156 141600.3125)">
						<stop  offset="0" style="stop-color:#006D62"/>
						<stop  offset="0.5168" style="stop-color:#001713"/>
						<stop  offset="1" style="stop-color:#00AF85"/>
					</linearGradient>
					<polygon id="Stroke-77_2_" class="st19" points="332.8,349.3 431.9,528.8 423.7,506.1 408.9,479.3 406.5,475 400.4,463.8 
						390.1,445.1 					"/>
					
						<linearGradient id="Stroke-78_1_" gradientUnits="userSpaceOnUse" x1="571.2803" y1="394.0056" x2="571.579" y2="394.8058" gradientTransform="matrix(20.751 -192.53 117.6845 33.9482 -57788.3828 97091.0312)">
						<stop  offset="0" style="stop-color:#006D62"/>
						<stop  offset="0.5168" style="stop-color:#001713"/>
						<stop  offset="1" style="stop-color:#00AF85"/>
					</linearGradient>
					<polygon id="Stroke-78_2_" class="st20" points="443.8,545.8 433.5,531.2 431.8,528.9 427.3,522.2 419.6,511.1 423.2,531.4 
						494.6,633.8 					"/>
					
						<linearGradient id="Stroke-79_1_" gradientUnits="userSpaceOnUse" x1="571.2183" y1="394.292" x2="571.3928" y2="394.9767" gradientTransform="matrix(22.9217 -257.5273 129.9946 45.4089 -63917.6602 129667.7891)">
						<stop  offset="0" style="stop-color:#006D62"/>
						<stop  offset="0.5168" style="stop-color:#001713"/>
						<stop  offset="1" style="stop-color:#00AF85"/>
					</linearGradient>
					<polygon id="Stroke-79_2_" class="st21" points="494.6,630.6 411.7,466.5 415.3,486.7 427.6,510.9 429.5,514.7 434.8,525 
						443.5,542.5 					"/>
					
						<linearGradient id="Stroke-80_1_" gradientUnits="userSpaceOnUse" x1="570.7389" y1="394.6581" x2="571.0413" y2="395.4581" gradientTransform="matrix(20.9247 -193.0223 118.6694 34.035 -58420.0898 97076.7969)">
						<stop  offset="0" style="stop-color:#006D62"/>
						<stop  offset="0.5168" style="stop-color:#001713"/>
						<stop  offset="1" style="stop-color:#00AF85"/>
					</linearGradient>
					<polygon id="Stroke-80_2_" class="st22" points="330.3,347 381.3,435 391.9,449.7 393.4,452 398.1,458.7 405.9,470 
						402.4,449.7 					"/>
					
						<linearGradient id="Stroke-81_1_" gradientUnits="userSpaceOnUse" x1="571.0389" y1="394.7195" x2="571.2134" y2="395.4042" gradientTransform="matrix(22.9217 -257.5273 129.9946 45.4089 -64046.5508 129483.1016)">
						<stop  offset="0" style="stop-color:#006D62"/>
						<stop  offset="0.5168" style="stop-color:#001713"/>
						<stop  offset="1" style="stop-color:#00AF85"/>
					</linearGradient>
					<polygon id="Stroke-81_2_" class="st23" points="330.9,350.5 413.7,514.7 410.2,494.5 397.7,469.9 395.7,466.1 390.6,455.8 
						382,438.8 					"/>
					
						<linearGradient id="Stroke-82_1_" gradientUnits="userSpaceOnUse" x1="571.1142" y1="394.0127" x2="571.4109" y2="394.7657" gradientTransform="matrix(19.6223 -177.2654 111.2833 31.2566 -54640.7812 89403)">
						<stop  offset="0" style="stop-color:#006D62"/>
						<stop  offset="0.5168" style="stop-color:#001713"/>
						<stop  offset="1" style="stop-color:#00AF85"/>
					</linearGradient>
					<polygon id="Stroke-82_2_" class="st24" points="425.6,530.4 415.3,516.8 413.7,514.6 409.1,508.4 401.5,498.1 398.8,515.7 
						469.8,611.1 					"/>
					
						<linearGradient id="Stroke-83_1_" gradientUnits="userSpaceOnUse" x1="571.0941" y1="393.7531" x2="571.2419" y2="394.5085" gradientTransform="matrix(18.2332 -233.8918 103.4047 41.2413 -50716.2031 117784.2734)">
						<stop  offset="0" style="stop-color:#006D62"/>
						<stop  offset="0.5168" style="stop-color:#001713"/>
						<stop  offset="1" style="stop-color:#00AF85"/>
					</linearGradient>
					<polygon id="Stroke-83_2_" class="st25" points="470.9,608.3 407.7,459.2 405,476.7 414.4,498.7 415.8,502.3 419.8,511.5 
						426.5,527.4 					"/>
					
						<linearGradient id="Stroke-84_1_" gradientUnits="userSpaceOnUse" x1="570.6581" y1="394.5938" x2="570.9534" y2="395.3469" gradientTransform="matrix(19.6223 -177.7578 111.2833 31.3434 -54753.6016 89411.6562)">
						<stop  offset="0" style="stop-color:#006D62"/>
						<stop  offset="0.5168" style="stop-color:#001713"/>
						<stop  offset="1" style="stop-color:#00AF85"/>
					</linearGradient>
					<polygon id="Stroke-84_2_" class="st26" points="328,348.3 372,429 382.4,442.8 384,444.9 388.5,451.1 396.2,461.6 398.9,444 
											"/>
					
						<linearGradient id="Stroke-85_1_" gradientUnits="userSpaceOnUse" x1="570.8596" y1="394.3668" x2="571.0073" y2="395.1222" gradientTransform="matrix(18.2332 -233.8918 103.4047 41.2413 -50839.7891 117612.7109)">
						<stop  offset="0" style="stop-color:#006D62"/>
						<stop  offset="0.5168" style="stop-color:#001713"/>
						<stop  offset="1" style="stop-color:#00AF85"/>
					</linearGradient>
					<polygon id="Stroke-85_2_" class="st27" points="327.4,351.5 390.6,500.6 393.3,483 383.9,460.7 382.3,457.3 378.4,447.9 
						371.9,432.5 					"/>
					
						<linearGradient id="Stroke-86_1_" gradientUnits="userSpaceOnUse" x1="571.0142" y1="394.2678" x2="571.3719" y2="394.996" gradientTransform="matrix(20.1433 -162.9857 114.2377 28.7387 -56160.25 82209.8438)">
						<stop  offset="0" style="stop-color:#006D62"/>
						<stop  offset="0.5168" style="stop-color:#001713"/>
						<stop  offset="1" style="stop-color:#00AF85"/>
					</linearGradient>
					<polygon id="Stroke-86_2_" class="st28" points="402.8,515.4 392.3,502.7 390.6,500.6 385.9,494.8 378.2,485.2 366.5,499.8 
						439.4,589 					"/>
					
						<linearGradient id="Stroke-87_1_" gradientUnits="userSpaceOnUse" x1="570.8397" y1="393.0731" x2="570.9399" y2="393.8051" gradientTransform="matrix(13.7184 -210.2565 77.7998 37.0737 -38014.1328 105902.1797)">
						<stop  offset="0" style="stop-color:#006D62"/>
						<stop  offset="0.5168" style="stop-color:#001713"/>
						<stop  offset="1" style="stop-color:#00AF85"/>
					</linearGradient>
					<polygon id="Stroke-87_2_" class="st29" points="441.6,586.8 403.6,452.9 392.1,467.4 397.7,487.1 398.7,490.3 401,498.6 
						405,512.9 					"/>
					
						<linearGradient id="Stroke-88_1_" gradientUnits="userSpaceOnUse" x1="570.6157" y1="394.7365" x2="570.9721" y2="395.4646" gradientTransform="matrix(20.2301 -163.9706 114.7301 28.9124 -56472.4375 82488.0234)">
						<stop  offset="0" style="stop-color:#006D62"/>
						<stop  offset="0.5168" style="stop-color:#001713"/>
						<stop  offset="1" style="stop-color:#00AF85"/>
					</linearGradient>
					<polygon id="Stroke-88_2_" class="st30" points="324.1,349.3 360.7,423.2 371.5,436.1 373.1,438.1 377.8,444 385.7,453.8 
						397.3,439.2 					"/>
					
						<linearGradient id="Stroke-89_1_" gradientUnits="userSpaceOnUse" x1="570.6149" y1="393.7698" x2="570.7156" y2="394.5017" gradientTransform="matrix(13.7184 -209.7641 77.7998 36.9869 -38126.3438 105493.8828)">
						<stop  offset="0" style="stop-color:#006D62"/>
						<stop  offset="0.5168" style="stop-color:#001713"/>
						<stop  offset="1" style="stop-color:#00AF85"/>
					</linearGradient>
					<polygon id="Stroke-89_2_" class="st31" points="321.6,351.8 359.6,485.5 371.1,470.9 365.4,451 364.5,447.8 362.2,439.5 
						358.3,425.6 					"/>
					
						<linearGradient id="Stroke-90_1_" gradientUnits="userSpaceOnUse" x1="570.959" y1="394.6551" x2="571.4529" y2="395.3854" gradientTransform="matrix(21.7061 -149.6907 123.101 26.3945 -60635.2617 75509.3047)">
						<stop  offset="0" style="stop-color:#006D62"/>
						<stop  offset="0.5168" style="stop-color:#001713"/>
						<stop  offset="1" style="stop-color:#00AF85"/>
					</linearGradient>
					<polygon id="Stroke-90_2_" class="st32" points="373,499.7 361.6,487.6 359.8,485.7 354.7,480.2 346.5,471.1 322,482 
						400.5,566.5 					"/>
					
						<linearGradient id="Stroke-91_1_" gradientUnits="userSpaceOnUse" x1="570.39" y1="391.2373" x2="570.4389" y2="392.0334" gradientTransform="matrix(8.0748 -184.6515 45.7936 32.5589 -22135.7793 93031.7656)">
						<stop  offset="0" style="stop-color:#006D62"/>
						<stop  offset="0.5168" style="stop-color:#001713"/>
						<stop  offset="1" style="stop-color:#00AF85"/>
					</linearGradient>
					<polygon id="Stroke-91_2_" class="st33" points="405.3,564.9 400.7,447.2 376.2,458 377,475.4 377.1,478.1 377.3,485.5 
						377.8,498 					"/>
					
						<linearGradient id="Stroke-92_1_" gradientUnits="userSpaceOnUse" x1="570.5402" y1="395.0147" x2="571.0315" y2="395.7448" gradientTransform="matrix(21.7929 -150.6756 123.5934 26.5682 -60887.9531 75810.1484)">
						<stop  offset="0" style="stop-color:#006D62"/>
						<stop  offset="0.5168" style="stop-color:#001713"/>
						<stop  offset="1" style="stop-color:#00AF85"/>
					</linearGradient>
					<polygon id="Stroke-92_2_" class="st34" points="317,349.5 344.4,416.5 356,428.8 357.8,430.7 362.8,436.1 371.2,445.5 
						395.7,434.6 					"/>
					
						<linearGradient id="Stroke-93_1_" gradientUnits="userSpaceOnUse" x1="570.1117" y1="391.9072" x2="570.1607" y2="392.7035" gradientTransform="matrix(8.0748 -184.6515 45.7936 32.5589 -22237.4355 92879.8047)">
						<stop  offset="0" style="stop-color:#006D62"/>
						<stop  offset="0.5168" style="stop-color:#001713"/>
						<stop  offset="1" style="stop-color:#00AF85"/>
					</linearGradient>
					<polygon id="Stroke-93_2_" class="st35" points="312.4,351.8 317.1,469.5 341.5,458.6 340.6,441 340.5,438.2 340.3,430.9 
						339.9,418.7 					"/>
					
						<linearGradient id="Stroke-94_1_" gradientUnits="userSpaceOnUse" x1="570.9336" y1="395.3213" x2="571.762" y2="396.1206" gradientTransform="matrix(24.5712 -136.8883 139.3503 24.1371 -68808.9297 69054.3516)">
						<stop  offset="0" style="stop-color:#006D62"/>
						<stop  offset="0.5168" style="stop-color:#001713"/>
						<stop  offset="1" style="stop-color:#00AF85"/>
					</linearGradient>
					<polygon id="Stroke-94_2_" class="st36" points="332.8,483.2 319.6,471.6 317.5,469.8 311.9,464.5 302.7,455.8 259.6,462 
						348.3,543.1 					"/>
					
						<linearGradient id="Stroke-95_1_" gradientUnits="userSpaceOnUse" x1="570.8622" y1="394.1636" x2="571.1225" y2="394.9679" gradientTransform="matrix(15.8021 -157.5693 89.6175 27.7836 -43967.5312 79419.8438)">
						<stop  offset="0" style="stop-color:#006D62"/>
						<stop  offset="0.5168" style="stop-color:#001713"/>
						<stop  offset="1" style="stop-color:#00AF85"/>
					</linearGradient>
					<polygon id="Stroke-95_2_" class="st37" points="356.6,542.1 398.1,441.7 355.1,447.9 349.2,462.7 348.2,465.1 345.6,471.4 
						341,482 					"/>
					
						<linearGradient id="Stroke-96_1_" gradientUnits="userSpaceOnUse" x1="570.355" y1="395.2574" x2="571.1834" y2="396.0569" gradientTransform="matrix(24.7448 -137.8731 140.3351 24.3107 -69224.125 69378.9375)">
						<stop  offset="0" style="stop-color:#006D62"/>
						<stop  offset="0.5168" style="stop-color:#001713"/>
						<stop  offset="1" style="stop-color:#00AF85"/>
					</linearGradient>
					<polygon id="Stroke-96_2_" class="st38" points="306,349.1 321.7,409.1 335.1,420.9 337.1,422.8 342.7,428 352.2,436.9 
						395.5,430.7 					"/>
					
						<linearGradient id="Stroke-97_1_" gradientUnits="userSpaceOnUse" x1="570.4381" y1="394.2988" x2="570.6984" y2="395.1032" gradientTransform="matrix(15.8021 -157.5693 89.6175 27.7836 -44101.7109 79273.8203)">
						<stop  offset="0" style="stop-color:#006D62"/>
						<stop  offset="0.5168" style="stop-color:#001713"/>
						<stop  offset="1" style="stop-color:#00AF85"/>
					</linearGradient>
					<polygon id="Stroke-97_2_" class="st39" points="298.2,350 256.7,450.4 299.7,444.2 305.7,429.1 306.7,426.8 309.3,420.5 
						313.8,410.2 					"/>
					
						<linearGradient id="Stroke-98_1_" gradientUnits="userSpaceOnUse" x1="570.5302" y1="395.8366" x2="571.3434" y2="396.2852" gradientTransform="matrix(29.6938 -125.0706 168.4022 22.0534 -83390.0547 63087.5234)">
						<stop  offset="0" style="stop-color:#006D62"/>
						<stop  offset="0.5168" style="stop-color:#001713"/>
						<stop  offset="1" style="stop-color:#00AF85"/>
					</linearGradient>
					<polygon id="Stroke-98_2_" class="st40" points="275.4,463.5 259.6,452 257,450.1 250.3,445.1 239.2,436.5 168.2,436.5 
						275.4,516.3 					"/>
					
						<linearGradient id="Stroke-100_1_" gradientUnits="userSpaceOnUse" x1="570.3372" y1="395.5365" x2="571.1537" y2="395.9907" gradientTransform="matrix(29.6938 -125.563 168.4022 22.1402 -83197.8203 63335.7656)">
						<stop  offset="0" style="stop-color:#006D62"/>
						<stop  offset="0.5168" style="stop-color:#001713"/>
						<stop  offset="1" style="stop-color:#00AF85"/>
					</linearGradient>
					<polygon id="Stroke-100_2_" class="st41" points="288.8,517.1 396.2,437.1 325.3,437.1 309.8,449 307.4,450.9 300.5,455.8 
						288.8,464.2 					"/>
					
						<linearGradient id="Stroke-101_1_" gradientUnits="userSpaceOnUse" x1="569.9458" y1="395.6929" x2="570.7591" y2="396.1389" gradientTransform="matrix(29.7806 -125.0706 168.8945 22.0534 -83441.9844 62944.8594)">
						<stop  offset="0" style="stop-color:#006D62"/>
						<stop  offset="0.5168" style="stop-color:#001713"/>
						<stop  offset="1" style="stop-color:#00AF85"/>
					</linearGradient>
					<polygon id="Stroke-101_2_" class="st42" points="289.1,347 289.1,399.4 305.2,411.1 307.7,412.9 314.5,418.1 325.8,426.7 
						396.8,426.7 					"/>
					
						<linearGradient id="Stroke-102_1_" gradientUnits="userSpaceOnUse" x1="570.1529" y1="395.9911" x2="570.9695" y2="396.4415" gradientTransform="matrix(29.6938 -125.0706 168.4022 22.0534 -83389.8672 62945.3945)">
						<stop  offset="0" style="stop-color:#006D62"/>
						<stop  offset="0.5168" style="stop-color:#001713"/>
						<stop  offset="1" style="stop-color:#00AF85"/>
					</linearGradient>
					<polygon id="Stroke-102_2_" class="st43" points="275.6,347.3 168.3,427 239.2,427 254.8,415 257.3,413.1 264.2,408.2 
						275.6,400 					"/>
				</g>
			</g>
		</g>
	</g>
</g>
<g id="Logo">
	<g>
		<g>
			<path class="st44" d="M285,274.7c0.8,0.7,1.3,1.9,1.3,3.4c0,2.1-0.7,3.6-2.2,4.4c-1.5,0.9-3.5,1.3-6.2,1.3h-6v-20h5.2
				c5.5,0,8.3,1.7,8.3,5.1c0,1.1-0.3,2.1-1.1,2.9c-0.7,0.7-1.6,1.2-2.6,1.4C282.9,273.4,284,273.9,285,274.7z M275.7,272h2.3
				c0.9,0.1,1.8-0.2,2.5-0.7c0.6-0.5,1-1.3,0.9-2.1c0.1-0.8-0.3-1.6-1-2c-0.9-0.4-2-0.6-3-0.6h-1.8L275.7,272L275.7,272z
				 M281.1,280.3c0.7-0.4,1.1-1.2,1.1-2.4c0.1-0.9-0.3-1.9-1.1-2.5c-0.9-0.5-1.9-0.8-2.9-0.8h-2.6v6.3h2.2
				C279,281,280.1,280.8,281.1,280.3L281.1,280.3z"/>
			<path class="st44" d="M293.2,281c0.2,0.2,0.4,0.3,0.7,0.3c0.3,0,0.6,0,0.9-0.1l0.8,2.6c-0.8,0.3-1.7,0.5-2.6,0.5
				c-1,0.1-2-0.3-2.7-1c-0.7-0.8-1-1.9-0.9-2.9v-18l3.7-0.4v18.1C293,280.4,293.1,280.7,293.2,281z"/>
			<path class="st44" d="M309.2,270.2c1.3,1.4,1.9,3.4,1.9,5.9c0,1.5-0.3,2.9-0.9,4.2c-0.5,1.2-1.4,2.2-2.5,2.8
				c-1.2,0.7-2.5,1.1-3.8,1c-2.3,0-4-0.7-5.3-2.2c-1.3-1.4-1.9-3.4-1.9-5.9c0-1.5,0.3-2.9,0.9-4.2c0.5-1.2,1.4-2.2,2.5-2.8
				c1.2-0.7,2.5-1,3.9-1C306.2,268,308,268.8,309.2,270.2z M300.6,276.1c0,1.8,0.3,3.2,0.8,4s1.5,1.3,2.5,1.3c1,0.1,1.9-0.5,2.5-1.3
				c0.6-0.9,0.8-2.2,0.8-4s-0.3-3.1-0.8-4c-0.5-0.8-1.5-1.3-2.4-1.3C301.7,270.9,300.6,272.6,300.6,276.1L300.6,276.1L300.6,276.1z"
				/>
			<path class="st44" d="M323.5,268.5c0.8,0.3,1.6,0.8,2.3,1.4l-1.7,2.3c-0.4-0.4-0.9-0.6-1.5-0.9c-0.5-0.2-1.1-0.3-1.6-0.3
				c-2.3,0-3.5,1.7-3.5,5.2c0,1.8,0.3,3,0.9,3.8s1.6,1.2,2.5,1.2c0.5,0,1-0.1,1.5-0.3c0.5-0.2,1-0.5,1.5-0.9l1.7,2.4
				c-1.4,1.2-3.1,1.8-4.9,1.8c-1.3,0-2.7-0.3-3.8-1c-1.1-0.7-2-1.6-2.5-2.8c-0.6-1.3-0.9-2.8-0.9-4.2c0-1.5,0.3-2.9,0.9-4.3
				c0.5-1.2,1.4-2.2,2.5-2.9c1.1-0.7,2.5-1.1,3.8-1C321.7,268,322.6,268.2,323.5,268.5z"/>
			<path class="st44" d="M328.4,283.8v-21.4l3.7-0.4v21.9L328.4,283.8z M341.8,283.8h-4.2l-5.3-8.4l5.1-7h3.9l-5.1,6.7L341.8,283.8z
				"/>
			<path class="st44" d="M354.2,269.9l-1.4,2.2c-1.1-0.8-2.4-1.3-3.8-1.3c-0.6,0-1.2,0.1-1.8,0.4c-0.4,0.2-0.6,0.7-0.6,1.1
				c0,0.3,0.1,0.6,0.3,0.9c0.3,0.3,0.6,0.5,0.9,0.6c0.7,0.3,1.3,0.5,2,0.7c1.4,0.3,2.6,0.9,3.7,1.8c0.8,0.8,1.3,1.9,1.2,3.1
				c0,1.4-0.7,2.8-1.8,3.6c-1.4,0.9-3,1.4-4.6,1.3c-1.2,0-2.3-0.2-3.5-0.6c-1-0.4-1.9-0.9-2.7-1.6l1.9-2.1c1.2,1,2.6,1.5,4.1,1.5
				c0.7,0,1.4-0.1,2-0.5c0.5-0.3,0.8-0.8,0.7-1.3c0-0.4-0.1-0.8-0.3-1.1c-0.3-0.3-0.6-0.6-1-0.7c-0.7-0.3-1.5-0.5-2.2-0.7
				c-1.3-0.3-2.5-0.9-3.5-1.8c-0.7-0.8-1.1-1.8-1.1-2.9c0-0.8,0.2-1.6,0.7-2.3c0.5-0.7,1.3-1.3,2.1-1.6c1-0.4,2-0.6,3.1-0.6
				C350.7,268,352.6,268.6,354.2,269.9z"/>
			<path class="st44" d="M364.6,283.9c-0.7,0.2-1.3,0.3-2,0.3c-1.3,0.1-2.5-0.4-3.5-1.3c-0.8-0.8-1.2-2.1-1.2-3.7v-8.1h-2.4v-2.7
				h2.4V265l3.7-0.4v3.8h3.6l-0.4,2.7h-3.2v8c-0.1,0.6,0.1,1.1,0.4,1.6c0.3,0.4,0.8,0.5,1.2,0.5c0.6,0,1.3-0.2,1.8-0.6l1.3,2.4
				C365.9,283.4,365.3,283.7,364.6,283.9z"/>
			<path class="st44" d="M377.6,268.3l-0.6,3.6c-0.4-0.1-0.9-0.2-1.4-0.2c-0.8,0-1.6,0.3-2.1,1c-0.6,0.9-1.1,1.9-1.2,3v8.1h-3.7
				v-15.3h3.2l0.3,3c0.3-1,0.8-1.9,1.6-2.5c0.7-0.6,1.5-0.9,2.4-0.9C376.6,268,377.1,268.1,377.6,268.3z"/>
			<path class="st44" d="M392.1,277.2h-9.6c0.1,1.5,0.5,2.5,1.2,3.2s1.6,1,2.6,1c0.7,0,1.3-0.1,1.9-0.3c0.7-0.3,1.3-0.6,1.9-1
				l1.5,2.1c-1.6,1.3-3.6,2.1-5.7,2.1c-2.3,0-4.1-0.7-5.4-2.1s-1.9-3.4-1.9-5.8c0-1.4,0.3-2.9,0.8-4.2c0.5-1.2,1.3-2.2,2.3-2.9
				c1.1-0.7,2.3-1.1,3.6-1.1c2.1,0,3.8,0.7,5,2s1.8,3.3,1.8,5.7C392.2,275.9,392.2,276.4,392.1,277.2z M388.5,274.7c0-2.7-1-4-3-4
				c-0.8,0-1.6,0.3-2.1,1s-0.8,1.7-0.9,3.2h6V274.7L388.5,274.7z"/>
			<path class="st44" d="M407.2,281c0.2,0.3,0.5,0.5,0.9,0.7l-0.8,2.5c-0.7,0-1.5-0.3-2.1-0.6c-0.6-0.4-1-0.9-1.3-1.6
				c-0.5,0.7-1.2,1.3-2,1.7c-0.8,0.4-1.7,0.6-2.6,0.6c-1.3,0.1-2.6-0.4-3.6-1.3c-0.9-0.9-1.4-2.1-1.3-3.4c-0.1-1.5,0.6-2.9,1.8-3.8
				c1.2-0.9,2.9-1.3,5.2-1.3h1.9v-0.9c0.1-0.8-0.2-1.5-0.7-2.1c-0.6-0.4-1.4-0.6-2.2-0.6c-1.4,0.1-2.8,0.3-4.1,0.8l-0.9-2.5
				c1.8-0.7,3.7-1.1,5.6-1.1c3.9,0,5.9,1.8,5.9,5.3v6.4C406.9,280.2,407,280.6,407.2,281z M403.3,279.6v-3.1h-1.5
				c-2.4,0-3.6,0.9-3.6,2.7c0,0.6,0.2,1.2,0.5,1.7c0.4,0.4,1,0.7,1.6,0.6C401.6,281.5,402.7,280.8,403.3,279.6L403.3,279.6z"/>
			<path class="st44" d="M430.6,269.3c0.8,1,1.2,2.2,1.1,3.4v11.1H428v-10.5c0-1.6-0.6-2.5-1.7-2.5c-0.6,0-1.1,0.2-1.5,0.6
				c-0.5,0.5-1,1.1-1.3,1.7v10.7h-3.7v-10.5c0-1.6-0.6-2.5-1.7-2.5c-0.6,0-1.1,0.2-1.6,0.6c-0.5,0.5-1,1.1-1.3,1.7v10.7h-3.7v-15.3
				h3.2l0.3,2c1-1.5,2.6-2.4,4.4-2.4c0.8,0,1.6,0.2,2.3,0.7c0.7,0.5,1.2,1.1,1.4,1.9c0.5-0.8,1.2-1.4,2-1.9c0.8-0.4,1.7-0.7,2.6-0.7
				C428.8,268,429.9,268.4,430.6,269.3z"/>
		</g>
		<g>
			<path class="st45" d="M292.9,325v-26.1h-7.3v25.8c0,4.4-2.3,6.9-6.3,6.9c-2.6,0-3.8-1-5-2.1l-4.8,4.8c2.8,2.7,5.6,3.8,9.8,3.8
				C285.9,338,292.9,333.9,292.9,325z"/>
			<path class="st45" d="M332.4,330.8v0.1l2.3,6.8h7.6l-14.2-38.8h-5.8l-14.1,38.8h7.6l2.4-6.9H332.4z M325.4,309.7l5,14.9h-10.2
				L325.4,309.7z"/>
			<path class="st45" d="M386.7,319.6c0-0.5,0-1,0-1.5s0-1,0-1.5c0-5.2,0.1-10.1-3.9-14.1c-2.4-2.4-5.9-3.7-10.2-3.7h-14v38.8h14
				c4.3,0,7.8-1.3,10.2-3.7C386.8,330,386.8,325,386.7,319.6z M377.7,328.7c-1.4,1.7-3.3,2.5-5.8,2.5H366v-25.9h5.9
				c2.6,0,4.4,0.8,5.8,2.5l0,0c1.4,1.8,1.7,4.1,1.7,10.3C379.4,324.1,379.2,326.9,377.7,328.7z"/>
			<polygon class="st45" points="431.4,305.4 431.4,298.9 406,298.9 406,337.7 431.4,337.7 431.4,331.2 413.3,331.2 413.3,321.4 
				428.7,321.4 428.7,314.9 413.3,314.9 413.3,305.4 			"/>
		</g>
		<polygon class="st46" points="207.2,315.5 194,302.4 168.3,302.4 207.2,341.2 		"/>
		<polygon class="st45" points="212,341.4 250.9,302.4 225.2,302.4 212,315.7 		"/>
		<polygon class="st47" points="212,258.6 212,284.3 225.3,297.6 251.1,297.6 		"/>
		<polygon class="st44" points="207.1,258.6 168.3,297.6 194,297.6 207.1,284.3 		"/>
	</g>
</g>
</svg>
