<?xml version="1.0" encoding="utf-8"?>
<!-- Generator: Adobe Illustrator 24.1.2, SVG Export Plug-In . SVG Version: 6.00 Build 0)  -->
<svg version="1.1" id="Layer_1" xmlns="http://www.w3.org/2000/svg" xmlns:xlink="http://www.w3.org/1999/xlink" x="0px" y="0px"
	 viewBox="0 0 2007.5 1008.5" style="enable-background:new 0 0 2007.5 1008.5;" xml:space="preserve">
<style type="text/css">
	.st0{fill:#FFFFFF;}
	.st1{fill:#00AF92;}
	.st2{fill:#0A886F;}
	.st3{fill:#87CDC2;}
</style>
<g>
	<g>
		<path class="st0" d="M932.8,400.7c3.7,3.3,5.6,8.2,5.6,14.9c0,9.2-3.2,15.8-9.7,19.6c-6.5,3.9-15.6,5.8-27.2,5.9h-26.6v-88.4H898
			c24.4,0,36.6,7.5,36.6,22.5c0.2,4.7-1.5,9.3-4.7,12.7c-3.1,3.3-7.2,5.5-11.7,6.4C923.6,395,928.6,397.2,932.8,400.7z M891.7,388.9
			H902c4,0.2,7.9-0.9,11.1-3.1c2.8-2.2,4.3-5.7,4.1-9.3c0.3-3.5-1.3-7-4.3-8.9c-4.2-2-8.8-2.9-13.4-2.5h-7.9L891.7,388.9
			L891.7,388.9z M915.8,425.5c3.3-1.9,4.9-5.4,4.9-10.6c0.4-4.2-1.4-8.3-4.7-10.9c-3.8-2.4-8.2-3.6-12.7-3.3h-11.7v27.6h9.8
			C906.5,428.6,911.4,427.7,915.8,425.5L915.8,425.5z"/>
		<path class="st0" d="M969.3,428.5c0.7,0.9,1.8,1.3,3,1.2c1.3,0,2.6-0.2,3.8-0.6l3.5,11.5c-3.7,1.5-7.7,2.3-11.7,2.3
			c-4.4,0.3-8.7-1.3-11.8-4.4c-3-3.6-4.4-8.2-4.1-12.9v-79.4l16.4-1.8v80.1C968.4,425.9,968.7,427.3,969.3,428.5z"/>
		<path class="st0" d="M1040.2,380.9c5.6,6.3,8.4,15,8.4,26.1c0.2,6.5-1.2,12.9-3.8,18.8c-2.4,5.2-6.2,9.6-11,12.6
			c-5.1,3.1-11,4.6-17,4.5c-10,0-17.8-3.1-23.4-9.5c-5.6-6.4-8.5-15.1-8.5-26.3c-0.1-6.4,1.2-12.8,3.8-18.7c2.4-5.2,6.2-9.5,11-12.5
			c5.2-3.1,11.1-4.6,17.1-4.5C1026.8,371.4,1034.6,374.5,1040.2,380.9z M1002,407.1c0,8,1.2,13.9,3.6,17.8c2.3,3.7,6.5,5.9,11,5.7
			c4.4,0.2,8.6-2,10.9-5.8c2.4-3.8,3.7-9.7,3.7-17.6s-1.2-13.8-3.7-17.6c-2.3-3.7-6.4-5.9-10.8-5.7c-9.8,0-14.6,7.7-14.6,23.2H1002
			L1002,407.1z"/>
		<path class="st0" d="M1103.1,373.3c3.7,1.4,7.1,3.4,10,6l-7.4,10c-2-1.6-4.2-2.8-6.5-3.8c-2.2-0.8-4.6-1.2-7.1-1.2
			c-10.2,0-15.3,7.7-15.3,23.2c0,7.8,1.3,13.5,4,16.9s6.9,5.3,11.3,5.1c2.3,0,4.6-0.4,6.7-1.2c2.4-1.1,4.6-2.4,6.7-4l7.6,10.7
			c-6.1,5.1-13.9,7.9-21.9,7.8c-5.9,0.1-11.8-1.3-16.9-4.3c-4.8-2.9-8.7-7.1-11-12.2c-2.7-5.9-4-12.2-3.8-18.7
			c-0.1-6.5,1.2-13,3.8-19c2.3-5.2,6.2-9.6,11-12.7c5-3.1,10.8-4.7,16.8-4.5C1095.2,371.3,1099.2,372,1103.1,373.3z"/>
		<path class="st0" d="M1125.1,441v-94.8l16.4-1.8V441H1125.1z M1184.2,441h-18.8l-23.3-37l22.6-30.7h17.3l-22.5,29.8L1184.2,441z"
			/>
		<path class="st0" d="M1238.8,379.4l-6.4,9.8c-4.8-3.6-10.6-5.6-16.6-5.8c-2.7-0.2-5.5,0.5-7.9,1.9c-1.7,1-2.8,2.9-2.8,4.9
			c-0.1,1.4,0.3,2.7,1.1,3.8c1.1,1.3,2.6,2.3,4.2,2.9c2.9,1.2,5.8,2.2,8.9,3c6,1.3,11.6,4,16.3,7.8c3.7,3.5,5.6,8.5,5.3,13.6
			c0.2,6.3-2.9,12.3-8.2,15.8c-6,4-13.1,6-20.3,5.7c-5.2,0.1-10.4-0.8-15.3-2.5c-4.3-1.6-8.4-4-11.8-7l8.3-9.3
			c5.1,4.3,11.5,6.7,18.2,6.8c3.1,0.1,6.2-0.6,8.8-2.2c2.1-1.2,3.3-3.4,3.3-5.8c0.1-1.7-0.3-3.4-1.2-4.8c-1.2-1.4-2.7-2.5-4.3-3.1
			c-3.2-1.3-6.5-2.4-9.8-3.3c-5.7-1.2-11-3.9-15.3-7.9c-3.3-3.4-5-8-4.9-12.7c-0.1-3.7,1.1-7.2,3.3-10.2c2.4-3.1,5.6-5.6,9.2-7
			c4.3-1.8,8.9-2.6,13.6-2.5C1223.3,371,1231.9,373.9,1238.8,379.4z"/>
		<path class="st0" d="M1284.9,441.5c-2.9,0.8-6,1.3-9,1.3c-5.7,0.4-11.2-1.7-15.3-5.7c-3.5-3.7-5.1-9.2-5.1-16.4v-35.6H1245v-11.9
			h10.6v-15l16.4-1.9v16.9h15.7l-1.6,11.8H1272v35.3c-0.2,2.5,0.4,5,1.7,7.1c1.4,1.6,3.4,2.4,5.4,2.2c2.9-0.1,5.7-1,8.1-2.5
			l5.8,10.6C1290.5,439.4,1287.8,440.7,1284.9,441.5z"/>
		<path class="st0" d="M1342.4,372.3l-2.8,15.9c-2-0.5-4-0.8-6-0.8c-3.7-0.1-7.2,1.4-9.4,4.3c-2.8,4-4.7,8.5-5.5,13.2v36h-16.4
			v-67.8h14.2l1.5,13.3c1.3-4.3,3.7-8.2,7-11.2c2.9-2.5,6.7-3.9,10.6-3.9C1337.9,371.4,1340.2,371.7,1342.4,372.3z"/>
		<path class="st0" d="M1406.5,412.1H1364c0.6,6.6,2.3,11.2,5.1,14.1c3.1,2.9,7.2,4.4,11.4,4.2c2.9,0,5.7-0.5,8.4-1.5
			c3-1.2,5.8-2.7,8.4-4.5l6.8,9.3c-7,5.9-15.9,9.1-25.1,9.1c-10.3,0-18.3-3.1-23.9-9.4s-8.4-14.9-8.4-25.9
			c-0.1-6.4,1.1-12.7,3.6-18.6c2.1-5.2,5.7-9.7,10.4-12.9c4.8-3.2,10.4-4.8,16.1-4.7c9.5,0,16.8,3,22,9s7.8,14.4,7.8,25.2
			C1406.9,406.3,1406.9,408.5,1406.5,412.1z M1390.6,400.7c0-11.9-4.4-17.8-13.2-17.8c-3.7-0.2-7.2,1.5-9.4,4.4
			c-2.3,3-3.6,7.6-4,14.1h26.6V400.7L1390.6,400.7z"/>
		<path class="st0" d="M1473.2,428.7c0.9,1.4,2.3,2.4,3.9,2.9l-3.5,10.9c-3.3-0.2-6.5-1.1-9.4-2.8c-2.6-1.7-4.6-4.2-5.6-7.1
			c-2.1,3.3-5.1,5.9-8.6,7.6c-3.6,1.7-7.6,2.6-11.6,2.5c-5.9,0.3-11.7-1.8-16-5.8c-4-4-6.1-9.5-5.9-15.1c-0.4-6.6,2.6-12.9,8-16.8
			c5.3-3.9,12.9-5.8,22.9-5.9h8.4v-3.8c0.3-3.3-0.7-6.7-3-9.2c-2.8-2-6.2-2.9-9.7-2.5c-6.1,0.2-12.2,1.4-17.9,3.6l-3.8-11.1
			c7.8-3.1,16.1-4.8,24.5-4.9c17.3,0,26,7.8,26,23.3V423C1471.8,425,1472.2,427,1473.2,428.7z M1455.8,422.5v-13.8h-6.8
			c-10.6,0-15.8,3.9-15.8,11.8c-0.2,2.8,0.7,5.5,2.4,7.6c1.9,1.9,4.5,2.9,7.2,2.7C1448.4,430.9,1453.5,427.6,1455.8,422.5
			L1455.8,422.5z"/>
		<path class="st0" d="M1576.6,376.8c3.4,4.2,5.2,9.6,4.9,15v49h-16.4v-46.4c0-7.3-2.5-10.9-7.4-10.9c-2.5,0-4.9,0.9-6.8,2.5
			c-2.4,2.2-4.4,4.8-5.9,7.6v47.1h-16.4v-46.5c0-7.3-2.5-10.9-7.4-10.9c-2.6,0-5,0.9-7,2.5c-2.3,2.2-4.4,4.8-5.9,7.6v47.1h-16.4
			v-67.7h14.2l1.3,8.8c4.3-6.7,11.7-10.8,19.6-10.8c3.6-0.1,7.2,0.9,10.2,3s5.2,5,6.3,8.4c2.3-3.4,5.3-6.4,8.8-8.5
			c3.5-2,7.4-3,11.4-2.9C1568.6,371,1573.3,373,1576.6,376.8z"/>
	</g>
	<g>
		<path class="st1" d="M968.1,623.2V507.8h-32.3v113.9c0,19.3-10.2,30.4-28,30.4c-11.4,0-16.8-4.2-22.1-9.4l-21.3,21
			c12.3,12,24.9,17,43.4,17C936.9,680.7,968.1,662.7,968.1,623.2z"/>
		<path class="st1" d="M1142.4,648.6l0.2,0.5l10,30.1h33.6l-62.6-171.5h-25.4l-62.4,171.5h33.6l10.4-30.6H1142.4z M1111.8,555.7
			l22.2,66h-45.1L1111.8,555.7z"/>
		<path class="st1" d="M1382.7,599.3c0-2.2,0-4.3,0-6.5s0-4.3,0-6.5c0.1-23,0.3-44.6-17.3-62.2c-10.7-10.7-26.3-16.3-45.1-16.3
			h-61.7v171.5h61.7c18.9,0,34.5-5.6,45.1-16.3C1383,645.4,1382.9,623,1382.7,599.3z M1343,639.7c-6.2,7.5-14.4,11-25.9,11h-26.3
			V536.4h26.3c11.4,0,19.7,3.5,25.9,11l0,0c6.4,7.8,7.5,18.2,7.5,45.4C1350.4,619.4,1349.4,631.8,1343,639.7z"/>
		<polygon class="st1" points="1580.2,536.4 1580.2,507.8 1467.8,507.8 1467.8,679.3 1580.2,679.3 1580.2,650.7 1500.1,650.7 
			1500.1,607.1 1568.3,607.1 1568.3,578.5 1500.1,578.5 1500.1,536.4 		"/>
	</g>
	<g>
		<polygon class="st2" points="589,581.3 530.8,523.3 417.1,523.3 589,694.7 		"/>
		<polygon class="st1" points="610.4,695.6 782.3,523.3 668.8,523.3 610.4,581.8 		"/>
		<polygon class="st3" points="610.4,329.8 610.4,443.2 669.3,501.9 783,501.9 		"/>
		<polygon class="st0" points="588.9,329.7 417.1,501.9 530.6,501.9 588.9,443.4 		"/>
	</g>
</g>
</svg>
