<svg height="289" viewBox="0 0 874 289" width="874" xmlns="http://www.w3.org/2000/svg" xmlns:xlink="http://www.w3.org/1999/xlink"><linearGradient id="a"><stop offset="0" stop-color="#006d62"/><stop offset=".516786318" stop-color="#001713"/><stop offset="1" stop-color="#00af85"/></linearGradient><linearGradient id="b" x1="30.428665%" x2="69.254168%" xlink:href="#a" y1="0%" y2="99.189717%"/><linearGradient id="c" x1="30.934688%" x2="68.756347%" xlink:href="#a" y1="0%" y2="99.189717%"/><linearGradient id="d" x1="30.281657%" x2="69.398794%" xlink:href="#a" y1="0%" y2="99.189717%"/><linearGradient id="e" x1="31.011797%" x2="68.680487%" xlink:href="#a" y1="0%" y2="99.189717%"/><linearGradient id="f" x1="30.410837%" x2="69.271708%" xlink:href="#a" y1="0%" y2="99.189717%"/><linearGradient id="g" x1="31.409875%" x2="68.28886%" xlink:href="#a" y1="0%" y2="99.189717%"/><linearGradient id="h" x1="30.367533%" x2="69.31431%" xlink:href="#a" y1="0%" y2="99.189717%"/><linearGradient id="i" x1="31.359393%" x2="68.338524%" xlink:href="#a" y1="0%" y2="99.189717%"/><linearGradient id="j" x1="30.500113%" x2="69.183879%" xlink:href="#a" y1="0%" y2="99.189717%"/><linearGradient id="k" x1="32%" x2="67.708298%" xlink:href="#a" y1="0%" y2="99.189717%"/><linearGradient id="l" x1="30.5312%" x2="69.153295%" xlink:href="#a" y1="0%" y2="99.189717%"/><linearGradient id="m" x1="31.893649%" x2="67.812926%" xlink:href="#a" y1="0%" y2="99.189717%"/><linearGradient id="n" x1="30.672023%" x2="69.014755%" xlink:href="#a" y1="0%" y2="99.189717%"/><linearGradient id="o" x1="32.986111%" x2="66.738168%" xlink:href="#a" y1="0%" y2="99.189717%"/><linearGradient id="p" x1="30.620974%" x2="69.064976%" xlink:href="#a" y1="0%" y2="99.189717%"/><linearGradient id="q" x1="30.671384%" x2="69.015383%" xlink:href="#a" y1="0%" y2="99.189717%"/><linearGradient id="r" x1="34.696905%" x2="65.055099%" xlink:href="#a" y1="0%" y2="99.189717%"/><linearGradient id="s" x1="30.852872%" x2="68.836836%" xlink:href="#a" y1="0%" y2="99.189717%"/><linearGradient id="t" x1="34.740085%" x2="65.012618%" xlink:href="#a" y1="0%" y2="99.189717%"/><linearGradient id="u" x1="31.318477%" x2="68.378777%" xlink:href="#a" y1="0%" y2="99.189717%"/><linearGradient id="v" x1="37.259852%" x2="62.533686%" xlink:href="#a" y1="0%" y2="99.189717%"/><linearGradient id="w" x1="31.101299%" x2="68.592435%" xlink:href="#a" y1="0%" y2="99.189717%"/><linearGradient id="x" x1="30.294753%" x2="69.38591%" xlink:href="#a" y1="0%" y2="99.189717%"/><linearGradient id="y" x1="40.227147%" x2="59.614478%" xlink:href="#a" y1="0%" y2="99.189717%"/><linearGradient id="z" x1="30.403772%" x2="69.278658%" xlink:href="#a" y1="0%" y2="99.189717%"/><linearGradient id="A" x1="25.436515%" x2="74.165418%" xlink:href="#a" y1="0%" y2="99.189717%"/><linearGradient id="B" x1="43.154134%" x2="56.734925%" xlink:href="#a" y1="0%" y2="99.189717%"/><linearGradient id="C" x1="25.521017%" x2="74.082285%" xlink:href="#a" y1="0%" y2="99.189717%"/><linearGradient id="D" x1="43.121956%" x2="56.766581%" xlink:href="#a" y1="0%" y2="99.189717%"/><linearGradient id="E" x1="16.185509%" x2="83.266505%" xlink:href="#a" y1="0%" y2="99.189717%"/><linearGradient id="F" x1="46.9248%" x2="53.025364%" xlink:href="#a" y1="0%" y2="99.189717%"/><linearGradient id="G" x1="16.358559%" x2="83.09626%" xlink:href="#a" y1="0%" y2="99.189717%"/><linearGradient id="H" x1="0%" x2="99.189717%" xlink:href="#a" y1="1.751177%" y2="97.466919%"/><linearGradient id="I" x1="33.826172%" x2="65.911721%" xlink:href="#a" y1="0%" y2="99.189717%"/><linearGradient id="J" x1="0%" x2="99.189717%" xlink:href="#a" y1="1.738997%" y2="97.478902%"/><linearGradient id="K" x1="0%" x2="99.189717%" xlink:href="#a" y1="22.420574%" y2="77.132483%"/><linearGradient id="L" x1="0%" x2="99.189717%" xlink:href="#a" y1="22.202986%" y2="77.346546%"/><linearGradient id="M" x1="0%" x2="99.189717%" xlink:href="#a" y1="22.581152%" y2="76.974507%"/><g fill="none" fill-rule="evenodd" stroke-width=".5" transform="matrix(-.76604444 -.64278761 -.64278761 .76604444 967.748925 164.04803)"><path d="m552.056306 478.560496-21.704664-34.256121-3.469438-5.475051-9.857208-15.578554-16.422585-25.953255 30.982035 52.416539 152.017965 240.083461z" stroke="url(#b)"/><path d="m679.316088 681.554651-247-400 30.935912 52.249104 36.410369 58.949351 5.794381 9.381378 15.452265 25.030813 26.312263 42.621222z" stroke="url(#c)"/><path d="m254.300177.08363208 131.835142 210.91926192 22.024581 34.630851 3.476784 5.467009 9.879827 15.557064 16.783666 26.425814-31.050261-52.336592z" stroke="url(#d)"/><path d="m260.35045 10.0245667 246.5 400.0000003-30.899343-52.29437-36.880366-59.83085-5.784267-9.385637-15.436613-25.054266-25.593904-41.542583z" stroke="url(#e)"/><path d="m530.192601 445.911871-20.226189-31.654177-3.232317-5.059437-9.176115-14.394207-15.290036-23.978906 27.412314 48.162417 141.587686 221.837583z" stroke="url(#f)"/><path d="m647.167655 633.385953-225-369 27.289012 48.037883 33.173049 54.381237 5.279608 8.655329 14.073442 23.09059 23.96378 39.317145z" stroke="url(#g)"/><path d="m256.306782 5.07809027 121.03667 194.64610473 20.471752 32.005893 3.231005 5.052099 9.175007 14.37527 15.585566 24.420633-27.402933-48.096446z" stroke="url(#h)"/><path d="m262.29366 13.8135694 225 368.4999996-27.312476-48.013018-33.668857-55.120642-5.281731-8.647327-14.087231-23.08068-23.357279-38.269971z" stroke="url(#i)"/><path d="m508.566146 416.293306-18.882274-29.242495-3.018165-4.673984-8.555826-13.294515-14.252154-22.148678 23.412136 44.082491 132.087864 204.917509z" stroke="url(#j)"/><path d="m615.983086 589.345327-204-340 23.378765 44.016963 30.086224 50.109765 4.788548 7.974689 12.755784 21.274909 21.720889 36.226315z" stroke="url(#k)"/><path d="m258.798194 9.24619663 110.778339 179.78076037 19.116485 29.630896 3.016695 4.677267 8.555873 13.306444 14.532608 22.604633-23.409239-44.117343z" stroke="url(#l)"/><path d="m262.495389 17.8627234 204 338.9999996-23.399381-43.925381-30.536354-50.709495-4.790307-7.954455-12.767746-21.233005-21.170661-35.205353z" stroke="url(#m)"/><path d="m487.218979 387.843762-17.777775-27.087146-2.840886-4.328863-8.034355-12.311986-13.386522-20.509608 18.796239 40.215654 124.203761 189.784346z" stroke="url(#n)"/><path d="m585.109677 546.963156-182-312 18.763651 40.023134 26.856595 45.985373 4.272997 7.318442 11.374291 19.521666 19.36772 33.24148z" stroke="url(#o)"/><path d="m259.22557 13.1462346 100.969791 165.5861494 18.001264 27.396706 2.840056 4.323923 8.037088 12.299228 13.651801 20.893994-18.796514-40.172991z" stroke="url(#p)"/><path d="m262.748125 20.3288514 182 311.9999996-18.780745-40.05697-27.256933-46.673374-4.275221-7.321212-11.385155-19.540491-18.877711-32.399858z" stroke="url(#o)"/><path d="m464.108099 361.802843-16.972847-25.022493-2.711808-3.999076-7.643245-11.367869-12.733787-18.936971 13.138548 36.223653 118.361452 175.276347z" stroke="url(#q)"/><path d="m553.74734 508.669444-158.5-286.5 13.07831 36.192444 23.410409 42.230778 3.724443 6.720695 9.896651 17.924661 16.85162 30.521838z" stroke="url(#r)"/><path d="m259.605737 16.5858866 91.11726 152.3968134 17.124337 25.3724 2.701184 4.005283 7.616624 11.385616 12.940595 19.339888-13.093032-36.277253z" stroke="url(#s)"/><path d="m262.263178 23.5117188 158 286.0000002-13.048347-36.16028-23.685332-42.787499-3.714544-6.711942-9.875272-17.911016-16.372024-29.696689z" stroke="url(#t)"/><path d="m439.165111 336.654454-16.366326-23.301516-2.613951-3.724303-7.329672-10.577462-12.211482-17.621759 5.689648 32.339495 113.810352 163.160505z" stroke="url(#u)"/><path d="m520.17554 471.769916-132-261.5 5.688858 32.187282 19.530817 38.551403 3.106898 6.135838 8.226348 16.358139 14.007636 27.853781z" stroke="url(#v)"/><path d="m258.370859 19.8404962 81.352744 140.1741538 16.647738 23.576869 2.625832 3.721335 7.364734 10.570973 12.508952 17.956669-5.716381-32.316308z" stroke="url(#w)"/><path d="m259.287992 25.5830194 132 261.4999996-5.694703-32.215958-19.823255-39.127698-3.107392-6.137729-8.235765-16.373965-13.652976-27.148643z" stroke="url(#v)"/><path d="m410.142842 312.114474-16.316705-21.714346-2.605481-3.470642-7.248481-9.845253-12.075285-16.400551-4.357278 28.050745 113 151.949255z" stroke="url(#x)"/><path d="m482.400238 436.19642-100.643342-237.5-4.356658 27.944678 14.949591 35.022072 2.377471 5.573796 6.246755 14.852889 10.637478 25.290736z" stroke="url(#y)"/><path d="m254.7342 21.9724657 70.121655 128.5009373 16.457566 21.974088 2.594271 3.468503 7.220574 9.840476 12.265086 16.715996 4.340848-28.036039z" stroke="url(#z)"/><path d="m253.81497 27.1295775 100.639422 237.5000005 4.360578-27.96898-15.173309-35.545556-2.377385-5.575926-6.253746-14.866978-10.367846-24.651394z" stroke="url(#y)"/><path d="m373.885071 288.259759-16.843318-20.35783-2.687161-3.252852-7.400363-9.211667-12.328713-15.345875-18.509619 23.189998 116 142.310002z" stroke="url(#A)"/><path d="m435.740722 402.014513-60.533871-213.5-18.466129 23.145421 9.097118 31.495805 1.444001 5.011786 3.712397 13.347272 6.319791 22.725018z" stroke="url(#B)"/><path d="m248.595376 23.6291779 58.253486 117.6442631 17.062339 20.666665 2.687174 3.261894 7.404543 9.236734 12.575873 15.690444 18.516585-23.251134z" stroke="url(#C)"/><path d="m244.525357 27.5797612 60.521269 212.9999998 18.478731-23.110629-9.231082-31.892474-1.445654-5.002399-3.714405-13.327657-6.159287-22.098508z" stroke="url(#D)"/><path d="m326.487077 263.181497-18.278693-19.290336-2.912438-3.082026-7.920156-8.70101-13.193276-14.496721-39.000133 17.365769 125 134.634231z" stroke="url(#E)"/><path d="m377.938474 366.964045-7.484178-187.5-39.015822 17.27577 1.370712 27.680884.212833 4.404349.352094 11.712212.600836 19.94292z" stroke="url(#F)"/><path d="m237.128567 23.8197518 43.699053 106.7595732 18.509653 19.591926 2.914259 3.09066 7.919488 8.729166 13.453787 14.828675 39.00376-17.419375z" stroke="url(#G)"/><path d="m229.781853 27.5029271 7.478047 187.4999999 39.021953-17.290392-1.391733-28.095433-.211957-4.405644-.353846-11.724041-.58507-19.438604z" stroke="url(#F)"/><path d="m262.233238 236.977214-20.855689-18.537559-3.320837-2.961094-8.894415-8.32185-14.817647-13.865008-68.697308 9.929819 141.5 129.070181z" stroke="url(#H)"/><path d="m300.330214 330.742524 65.995954-160-68.552237 9.913436-9.323424 23.653677-1.491818 3.762703-4.303989 9.980777-7.328532 16.993998z" stroke="url(#I)"/><path d="m219.735555 23.1668274 24.992683 95.6517386 21.184366 18.836718 3.331951 2.971349 8.921845 8.35197 15.154748 14.188224 68.914407-9.964858z" stroke="url(#J)"/><path d="m207.129111 24.7236022-65.985559 159.9999998 68.599866-9.921998 9.46097-24.006674 1.492645-3.764813 4.305508-9.990685 7.141011-16.56388z" stroke="url(#I)"/><path d="m171.046343 205.495368-25.404299-18.305622-4.042267-2.922719-10.662274-8.161151-17.760867-13.594994h-113.13029264l170.99999964 127z" stroke="url(#K)"/><path d="m192.267566 290.907162 171-127.5h-112.849815l-24.594254 18.901713-3.925802 3.00547-10.962947 7.930939-18.667182 13.503539z" stroke="url(#L)"/><path d="m192.750607 19.8496947v83.6878953l25.699267 18.463028 4.038071 2.911097 10.650335 8.129345 18.090765 13.808635h113.021562z" stroke="url(#M)"/><path d="m171.229298 20.3834166-170.99999972 127.0000004h112.94642672l24.960262-19.108981 3.928647-2.995231 10.970891-7.906919 18.193773-13.110115z" stroke="url(#K)"/></g></svg>